<svg xmlns="http://www.w3.org/2000/svg" viewBox="0 0 684.9 628"><title>analytical-brain</title><g id="Layer_2" data-name="Layer 2"><g id="Layer_1-2" data-name="Layer 1"><path d="M411.1,54.1a27.14,27.14,0,0,0,25.2-17.2h91.1l120.7,85.8v59.4a27,27,0,1,0,17.6-.7V113.6L532.9,19.2H436.8A27,27,0,0,0,383.9,27,27.27,27.27,0,0,0,411.1,54.1Z"/><path d="M314.4,55.7a26.34,26.34,0,0,0,15.9-5.2l109.5,74.9a27.63,27.63,0,0,0-.9,7.1,27.16,27.16,0,0,0,17.7,25.4v93.9l45.8,35a25.05,25.05,0,0,0-.6,5.5,26.87,26.87,0,1,0,9.7-20.8l-37.3-28.4v-85a27,27,0,1,0-24.5-47.4L340.2,35.9a28.44,28.44,0,0,0,1-7.2,27,27,0,1,0-54,0A27.32,27.32,0,0,0,314.4,55.7Z"/><path d="M655.9,265.4a26.87,26.87,0,0,0-17.5,6.4l-58.7-34.6V169.1a27,27,0,1,0-17.6-.7v78.9l67.4,39.9a30.72,30.72,0,0,0-.5,5.3,27,27,0,0,0,19.4,25.9l.2,16.3L495.1,393.9V439a27,27,0,0,0,0,51v36.5a27.05,27.05,0,1,0,17.7,0V490.1a27,27,0,0,0,0-51V406.2l153.6-59.3-.3-29.3a27.1,27.1,0,0,0-10.2-52.2Z"/><path d="M466.5,386.1a27,27,0,0,0-53.8-3.3H275.8a27,27,0,0,0-53.6,0H168.7L95.7,334a25.89,25.89,0,0,0,.7-6.3,27,27,0,1,0-10.3,21.2l77.3,51.5h62.8a27.11,27.11,0,0,0,45.8,0H416.7a26.83,26.83,0,0,0,13.9,11.1v164a27.05,27.05,0,1,0,17.7,0V411.7A27.2,27.2,0,0,0,466.5,386.1Z"/><path d="M303.8,256.8a27,27,0,1,0,35.4-25.7V181.2l-62.5-43.7a27.39,27.39,0,0,0,1.2-8.1,27,27,0,1,0-11.8,22.3l55.4,38.8v41A27,27,0,0,0,303.8,256.8Z"/><path d="M82.7,224.6a27,27,0,0,0,52.6,8.5h59.3a26.94,26.94,0,1,0,.2-17.7H135.1a27,27,0,0,0-52.4,9.2Z"/><path d="M158.8,184a27,27,0,0,0,27-27,26.26,26.26,0,0,0-.5-4.9l.4.4,20-18V73.6a27.1,27.1,0,0,0,13.5-10l26.2-.8,135.9,98.4v27.2a27,27,0,1,0,17.7-.3v-36L251,44.9l-26.9.8a27,27,0,1,0-36,27.7v53.2l-11.3,10.2A27,27,0,0,0,131.9,157,26.87,26.87,0,0,0,158.8,184Z"/><path d="M158.1,328.3H395.7a27.09,27.09,0,1,0-4.1-17.7H163.3L41.4,233.5V138.3a27.16,27.16,0,0,0,10.2-33.8l29-30.3A27.32,27.32,0,0,0,94.5,78a27,27,0,1,0-27-27,27.55,27.55,0,0,0,1.7,9.5L39.5,91.6A26.3,26.3,0,0,0,27,88.5a27,27,0,0,0-3.2,53.8V243.2Z"/></g></g></svg>