<svg xmlns="http://www.w3.org/2000/svg" viewBox="0 0 601.14 732.78"><title>niq-ai</title><g id="Layer_2" data-name="Layer 2"><g id="Layer_1-2" data-name="Layer 1"><path d="M562.5,334.12c-18.58-35.78,7.94-57.09,9.62-75.67C580.46,173.16,551.6,121,512.5,79.7,459.17,23.32,393.42,4.7,341.44,0a9.59,9.59,0,0,0-10,6.62L316.92,51.87a12.69,12.69,0,0,0,2.92,12.66l89.1,93.08a61.55,61.55,0,1,1-39.72,38L257.48,78.9a12.69,12.69,0,0,1-2.92-12.66l19-59.3A4.94,4.94,0,0,0,268.47.51c-87.62,7-136.61,33.86-172.24,66.1a9.26,9.26,0,0,0-.64,13.08l.08.09,87.67,94.48A61.42,61.42,0,0,1,198,172.43h.18a61.48,61.48,0,0,1,58.47,80.79l135,145.56a9.71,9.71,0,0,1,.67,12.4l-66.67,89.6A61.6,61.6,0,1,1,281.48,468l39.45-53a9.71,9.71,0,0,0-.67-12.4L217.81,292.24a61.24,61.24,0,0,1-19.41,3.22h-.18A61.5,61.5,0,0,1,141.55,210L61.3,123.56a10.21,10.21,0,0,0-15.9,1.18C-13.11,209.32,1.61,277.68,1.73,277.68,3.8,329.35,75,423.21,75,423.21c43.08,61.89,139,224.13,191.75,298.85A25.27,25.27,0,0,0,310.38,718c17.56-38.62,61.2-86.5,61.2-86.5,23.08-29,61.68-18.84,82.56-16.28,59.91,7.45,74.78-10.24,74.78-10.24,12.93-8,39.89-166.83,39.89-166.83,33-.79,32.3-22.06,32.3-22.06C602.39,404.37,562.5,334.12,562.5,334.12Z"/></g></g></svg>